<svg width="40" height="40" viewBox="0 0 40 40" fill="none" xmlns="http://www.w3.org/2000/svg">
<rect width="40" height="40" rx="5" fill="#F5E001"/>
<path d="M19.5132 15.4161C20.8718 15.4161 22.1726 15.9553 23.1329 16.9164C24.0921 17.877 24.6318 19.1806 24.6318 20.5403C24.6318 23.3703 22.3401 25.6628 19.5129 25.6628C18.1559 25.6642 16.854 25.1242 15.8932 24.1625C14.934 23.202 14.3946 21.8989 14.3946 20.5403C14.3946 19.1803 14.9337 17.8767 15.8932 16.9164C16.8543 15.9553 18.1562 15.415 19.5132 15.4161ZM19.5132 13.0522C12.6718 13.0522 8.70483 18.6659 8.70483 20.5403C8.70483 22.4142 12.6718 28.0264 19.5132 28.0264C26.3568 28.0264 30.3221 22.4142 30.3221 20.5403C30.3221 18.6661 26.3568 13.0522 19.5132 13.0522Z" fill="#2A2A2A"/>
<path d="M22.6899 20.5406C22.6899 22.0728 21.6038 23.3906 20.1004 23.6817C18.5971 23.9731 17.0985 23.1559 16.5268 21.7342C15.9554 20.312 16.4721 18.6839 17.7585 17.8528C19.0443 17.02 20.7402 17.2184 21.7993 18.3248L19.4929 20.5409L22.6899 20.5406Z" fill="#2A2A2A"/>
</svg>
