<svg width="25" height="25" viewBox="0 0 25 25" fill="none" xmlns="http://www.w3.org/2000/svg">
<path d="M12.5132 7.41614C13.8718 7.41614 15.1726 7.9553 16.1329 8.91641C17.0921 9.87697 17.6318 11.1806 17.6318 12.5403C17.6318 15.3703 15.3401 17.6628 12.5129 17.6628C11.1559 17.6642 9.854 17.1242 8.89317 16.1625C7.934 15.202 7.39456 13.8989 7.39456 12.5403C7.39456 11.1803 7.93372 9.87669 8.89317 8.91641C9.85428 7.9553 11.1562 7.41502 12.5132 7.41614ZM12.5132 5.05225C5.67178 5.05225 1.70483 10.6659 1.70483 12.5403C1.70483 14.4142 5.67178 20.0264 12.5132 20.0264C19.3568 20.0264 23.3221 14.4142 23.3221 12.5403C23.3221 10.6661 19.3568 5.05225 12.5132 5.05225Z" fill="#2A2A2A"/>
<path d="M15.6899 12.5405C15.6899 14.0728 14.6038 15.3905 13.1004 15.6816C11.5971 15.973 10.0985 15.1558 9.52682 13.7342C8.95544 12.3119 9.4721 10.6839 10.7585 9.85276C12.0443 9.01998 13.7402 9.21832 14.7993 10.3247L12.4929 12.5408L15.6899 12.5405Z" fill="#2A2A2A"/>
</svg>
