<svg width="37" height="37" viewBox="0 0 37 37" fill="none" xmlns="http://www.w3.org/2000/svg">
<g clip-path="url(#clip0_74_1880)">
<path d="M18.1481 0C8.1413 0 0 8.1413 0 18.1481C0 28.1543 8.1413 36.2963 18.1481 36.2963C28.1543 36.2963 36.2963 28.1543 36.2963 18.1481C36.2963 8.1413 28.1557 0 18.1481 0ZM22.6614 18.7871H19.7089V29.3107H15.3337C15.3337 29.3107 15.3337 23.5606 15.3337 18.7871H13.254V15.0677H15.3337V12.6619C15.3337 10.9389 16.1525 8.24656 19.7491 8.24656L22.9911 8.25899V11.8695C22.9911 11.8695 21.021 11.8695 20.638 11.8695C20.2549 11.8695 19.7103 12.061 19.7103 12.8827V15.0684H23.0437L22.6614 18.7871Z" fill="#2E3192"/>
</g>
<defs>
<clipPath id="clip0_74_1880">
<rect width="36.2963" height="36.2963" fill="white"/>
</clipPath>
</defs>
</svg>
