<svg width="20" height="20" viewBox="0 0 20 20" fill="none" xmlns="http://www.w3.org/2000/svg">
<path d="M10.2933 0.615781C10.0103 0.60371 9.71963 0.605836 9.4205 0.623103C5.80638 0.917629 2.89675 3.79972 2.89706 7.47492C2.8975 9.21502 3.58775 10.736 4.67319 12.1343C5.62463 13.3814 6.687 14.5366 8.05944 15.6402L8.07432 15.6499C9.1302 16.4649 10.5996 16.5566 11.7877 15.6548C11.7971 15.6473 11.8071 15.6397 11.8158 15.6317C13.2805 14.389 14.2741 13.381 15.202 12.1246C15.202 12.1202 15.2096 12.1159 15.2119 12.1112C16.1593 10.7546 16.9644 9.24592 16.9649 7.47495C16.9649 4.16798 14.5393 0.796612 10.2933 0.615781ZM9.93325 3.17926C12.3439 3.17926 14.3107 5.1472 14.3107 7.55792C14.3107 9.96864 12.3439 11.9354 9.93325 11.9354C7.5225 11.9354 5.55456 9.96864 5.55456 7.55792C5.55456 5.1472 7.5225 3.17926 9.93325 3.17926Z" fill="#2E3192"/>
<path d="M15.4703 13.3281C14.5422 14.4798 13.514 15.5005 12.0963 16.7034C12.0857 16.7126 12.0762 16.7201 12.0644 16.729C10.6991 17.7654 9.01032 17.6608 7.79688 16.724L7.78011 16.7129C6.46167 15.6527 5.39817 14.547 4.44399 13.3768L3.83849 13.7076C3.25061 14.0278 2.8143 14.5421 2.8143 15.1651C2.8143 15.7881 3.25061 16.3072 3.83849 16.6275L8.02792 18.9114C9.20374 19.5519 10.8012 19.5519 11.9769 18.9114L16.1664 16.6275C16.7542 16.3072 17.1857 15.7881 17.1857 15.1651C17.1857 14.5421 16.7542 14.0278 16.1664 13.7076L15.4703 13.3281Z" fill="#2E3192"/>
</svg>
