<svg width="50" height="50" viewBox="0 0 50 50" fill="none" xmlns="http://www.w3.org/2000/svg">
<path d="M25.7333 1.53945C25.0256 1.50927 24.2991 1.51459 23.5513 1.55776C14.516 2.29407 7.24189 9.49931 7.24268 18.6873C7.24377 23.0376 8.96939 26.8401 11.683 30.3358C14.0616 33.4536 16.7175 36.3414 20.1486 39.1005L20.1858 39.1247C22.8255 41.1623 26.4989 41.3915 29.4692 39.1371C29.4929 39.1182 29.5177 39.0993 29.5396 39.0792C33.2011 35.9726 35.6852 33.4525 38.0051 30.3115C38.0051 30.3006 38.024 30.2898 38.0299 30.2779C40.3983 26.8866 42.4111 23.1148 42.4122 18.6874C42.4122 10.4199 36.3483 1.99153 25.7333 1.53945ZM24.8331 7.94814C30.8599 7.94814 35.7767 12.868 35.7767 18.8948C35.7767 24.9216 30.8599 29.8384 24.8331 29.8384C18.8063 29.8384 13.8864 24.9216 13.8864 18.8948C13.8864 12.868 18.8063 7.94814 24.8331 7.94814Z" fill="#2E3192"/>
<path d="M38.6757 33.3204C36.3555 36.1997 33.7849 38.7515 30.2407 41.7585C30.2141 41.7816 30.1905 41.8005 30.161 41.8226C26.7476 44.4136 22.5257 44.1521 19.4921 41.8102L19.4502 41.7825C16.1541 39.1318 13.4953 36.3677 11.1099 33.442L9.59611 34.269C8.12643 35.0697 7.03564 36.3553 7.03564 37.9128C7.03564 39.4704 8.12643 40.7682 9.59611 41.5688L20.0697 47.2787C23.0092 48.8799 27.0028 48.88 29.9422 47.2787L40.4158 41.5688C41.8855 40.7682 42.9641 39.4704 42.9641 37.9128C42.9641 36.3553 41.8855 35.0697 40.4158 34.269L38.6757 33.3204Z" fill="#2E3192"/>
</svg>
