<svg width="50" height="50" viewBox="0 0 50 50" fill="none" xmlns="http://www.w3.org/2000/svg">
<path d="M2.0835 31.7709C1.22055 31.7709 0.520996 32.4705 0.520996 33.3334C0.520996 34.1963 1.22055 34.8959 2.0835 34.8959H8.3335C9.19643 34.8959 9.896 34.1963 9.896 33.3334C9.896 32.4705 9.19643 31.7709 8.3335 31.7709H2.0835Z" fill="#2E3192"/>
<path d="M2.0835 38.0209C1.22055 38.0209 0.520996 38.7205 0.520996 39.5834C0.520996 40.4463 1.22055 41.1459 2.0835 41.1459H14.5835C15.4464 41.1459 16.146 40.4463 16.146 39.5834C16.146 38.7205 15.4464 38.0209 14.5835 38.0209H2.0835Z" fill="#2E3192"/>
<path d="M6.47677 10.6043L6.25 10.4167C6.8925 9.53235 7.57625 8.8819 8.46056 8.2394C11.1987 6.25 15.1047 6.25 22.9167 6.25H27.0833C34.8952 6.25 38.8013 6.25 41.5394 8.2394C42.4237 8.8819 43.0535 9.46108 43.696 10.3454L43.4344 10.6056L38.6262 15.4138C35.1227 18.9172 32.604 21.4312 30.4315 23.089C28.295 24.719 26.6781 25.3727 24.9998 25.3727C23.3212 25.3727 21.7044 24.719 19.5679 23.089C17.3954 21.4312 14.8766 18.9172 11.3732 15.4138L7.32473 11.3653L6.47677 10.6043Z" fill="#2E3192"/>
<path d="M4.16699 25C4.16699 19.5002 4.16699 15.9364 4.8612 13.3531L5.17501 13.6347L9.24833 17.708C12.6489 21.1085 15.3138 23.7735 17.6727 25.5733C20.0871 27.4154 22.3637 28.4977 25.0001 28.4977C27.6364 28.4977 29.913 27.4154 32.3274 25.5733C34.6862 23.7735 37.3512 21.1085 40.7518 17.708L45.1324 13.3273C45.8337 15.9126 45.8337 19.4819 45.8337 25C45.8337 32.8119 45.8337 36.7179 43.8443 39.456C43.2018 40.3404 42.4241 41.1181 41.5397 41.7606C38.8016 43.75 34.8955 43.75 27.0837 43.75H22.917C19.9412 43.75 17.5322 43.75 15.5387 43.64C17.3796 43.2083 18.7503 41.5558 18.7503 39.5833C18.7503 37.2821 16.8848 35.4167 14.5837 35.4167H11.9429C12.2974 34.8037 12.5003 34.0923 12.5003 33.3333C12.5003 31.0321 10.6348 29.1667 8.33366 29.1667H4.18201C4.16699 27.9144 4.16699 26.5323 4.16699 25Z" fill="#2E3192"/>
</svg>
