<svg width="20" height="20" viewBox="0 0 20 20" fill="none" xmlns="http://www.w3.org/2000/svg">
<path d="M0.833344 12.7083C0.488165 12.7083 0.208344 12.9881 0.208344 13.3333C0.208344 13.6784 0.488165 13.9583 0.833344 13.9583H3.33334C3.67852 13.9583 3.95834 13.6784 3.95834 13.3333C3.95834 12.9881 3.67852 12.7083 3.33334 12.7083H0.833344Z" fill="#2E3192"/>
<path d="M0.833344 15.2083C0.488165 15.2083 0.208344 15.4881 0.208344 15.8333C0.208344 16.1784 0.488165 16.4583 0.833344 16.4583H5.83334C6.17852 16.4583 6.45834 16.1784 6.45834 15.8333C6.45834 15.4881 6.17852 15.2083 5.83334 15.2083H0.833344Z" fill="#2E3192"/>
<path d="M2.59071 4.24172L2.5 4.16667C2.757 3.81294 3.0305 3.55276 3.38423 3.29576C4.4795 2.5 6.04189 2.5 9.16667 2.5H10.8333C13.9581 2.5 15.5205 2.5 16.6158 3.29576C16.9695 3.55276 17.2214 3.78443 17.4784 4.13816L17.3737 4.24225L15.4505 6.16551C14.0491 7.56689 13.0416 8.5725 12.1726 9.23558C11.318 9.88758 10.6713 10.1491 9.99992 10.1491C9.3285 10.1491 8.68175 9.88758 7.82718 9.23558C6.95817 8.5725 5.95066 7.56689 4.54927 6.16551L2.92989 4.54612L2.59071 4.24172Z" fill="#2E3192"/>
<path d="M1.66669 9.9999C1.66669 7.79997 1.66669 6.37445 1.94437 5.34113L2.0699 5.45379L3.69922 7.0831C5.05945 8.44332 6.12543 9.50932 7.06897 10.2292C8.03475 10.9661 8.94535 11.399 9.99994 11.399C11.0544 11.399 11.9651 10.9661 12.9309 10.2292C13.8744 9.50932 14.9404 8.44332 16.3006 7.08312L18.0529 5.33081C18.3334 6.36495 18.3334 7.79264 18.3334 9.9999C18.3334 13.1247 18.3334 14.6871 17.5376 15.7823C17.2806 16.1361 16.9695 16.4472 16.6158 16.7042C15.5205 17.4999 13.9581 17.4999 10.8334 17.4999H9.16669C7.97639 17.4999 7.01279 17.4999 6.21536 17.4559C6.95172 17.2832 7.50002 16.6222 7.50002 15.8332C7.50002 14.9127 6.75383 14.1666 5.83335 14.1666H4.77705C4.91886 13.9214 5.00002 13.6368 5.00002 13.3332C5.00002 12.4127 4.25383 11.6666 3.33335 11.6666H1.6727C1.66669 11.1657 1.66669 10.6128 1.66669 9.9999Z" fill="#2E3192"/>
</svg>
