<svg width="20" height="20" viewBox="0 0 20 20" fill="none" xmlns="http://www.w3.org/2000/svg">
<path d="M7.85455 0.732496C7.77911 0.731336 7.70408 0.743845 7.63309 0.769417C4.35334 1.90174 2.65244 4.17206 2.25816 6.69338C1.86387 9.2147 2.69196 11.9415 4.18206 14.2137C5.67216 16.4859 7.83734 18.3307 10.2767 19.0073C12.7161 19.6839 15.4383 19.0912 17.6771 16.6313C17.7694 16.5297 17.8258 16.4006 17.8374 16.2639C17.8491 16.1271 17.8155 15.9903 17.7417 15.8746L15.3149 12.0268C15.271 11.9574 15.2138 11.8973 15.1467 11.85C15.0795 11.8028 15.0038 11.7691 14.9236 11.7512C14.8435 11.7332 14.7606 11.7311 14.6797 11.7452C14.5988 11.7592 14.5215 11.7891 14.4521 11.833L11.527 13.6739C8.92885 12.2636 7.99622 10.163 7.68845 7.5746L10.6043 5.73835C10.6737 5.69445 10.7337 5.63729 10.781 5.57017C10.8283 5.50304 10.8619 5.42725 10.8799 5.34712C10.8979 5.267 10.9 5.18412 10.8859 5.10321C10.8719 5.02231 10.842 4.94496 10.7981 4.87559L8.36667 1.02316C8.31176 0.936364 8.2363 0.864439 8.14698 0.813743C8.05766 0.763047 7.95722 0.735142 7.85455 0.732496Z" fill="#2E3192"/>
</svg>
