<svg width="50" height="50" viewBox="0 0 50 50" fill="none" xmlns="http://www.w3.org/2000/svg">
<path d="M19.6366 1.83148C19.448 1.82858 19.2604 1.85986 19.0829 1.92379C10.8835 4.75459 6.63129 10.4304 5.64557 16.7337C4.65985 23.037 6.73008 29.854 10.4553 35.5345C14.1806 41.2149 19.5935 45.827 25.692 47.5185C31.7905 49.21 38.5959 47.7283 44.1929 41.5784C44.4237 41.3245 44.5646 41.0018 44.5938 40.6599C44.623 40.318 44.5388 39.9761 44.3543 39.6868L38.2873 30.0672C38.1776 29.8938 38.0347 29.7436 37.8669 29.6254C37.699 29.5071 37.5096 29.4231 37.3093 29.3781C37.109 29.3331 36.9018 29.3281 36.6995 29.3632C36.4972 29.3983 36.3039 29.4729 36.1304 29.5828L28.8178 34.185C22.3223 30.6593 19.9907 25.4076 19.2213 18.9367L26.5109 14.3461C26.6844 14.2364 26.8346 14.0935 26.9528 13.9257C27.071 13.7578 27.1551 13.5684 27.2 13.3681C27.245 13.1678 27.2501 12.9605 27.215 12.7583C27.1799 12.556 27.1052 12.3626 26.9953 12.1892L20.9169 2.55814C20.7796 2.34115 20.5909 2.16134 20.3676 2.0346C20.1443 1.90786 19.8932 1.8381 19.6366 1.83148Z" fill="#2E3192"/>
</svg>
