<svg width="30" height="30" viewBox="0 0 30 30" fill="none" xmlns="http://www.w3.org/2000/svg">
<path d="M20.1739 3.69883L8.88643 7.44883C1.29893 9.98633 1.29893 14.1239 8.88643 16.6489L12.2364 17.7614L13.3489 21.1114C15.8739 28.6989 20.0239 28.6989 22.5489 21.1114L26.3114 9.83633C27.9864 4.77383 25.2364 2.01133 20.1739 3.69883ZM20.5739 10.4238L15.8239 15.1989C15.6364 15.3864 15.3989 15.4739 15.1614 15.4739C14.9239 15.4739 14.6864 15.3864 14.4989 15.1989C14.1364 14.8364 14.1364 14.2364 14.4989 13.8739L19.2489 9.09883C19.6114 8.73633 20.2114 8.73633 20.5739 9.09883C20.9364 9.46133 20.9364 10.0613 20.5739 10.4238Z" fill="white"/>
</svg>
