<svg width="38" height="37" viewBox="0 0 38 37" fill="none" xmlns="http://www.w3.org/2000/svg">
<g clip-path="url(#clip0_74_1872)">
<path d="M19 0C8.97854 0 0.851807 8.12673 0.851807 18.1481C0.851807 28.1696 8.97854 36.2963 19 36.2963C29.0214 36.2963 37.1481 28.1696 37.1481 18.1481C37.1481 8.12673 29.0214 0 19 0ZM27.2862 14.15C27.2942 14.3286 27.2981 14.5081 27.2981 14.6883C27.2981 20.1926 23.1083 26.5399 15.4463 26.5402C13.0938 26.5402 10.9048 25.8506 9.06134 24.669C9.38727 24.7075 9.71902 24.7266 10.0549 24.7266C12.0066 24.7266 13.8027 24.0609 15.2286 22.9436C13.4051 22.9098 11.8676 21.7054 11.3371 20.0503C11.591 20.099 11.8521 20.1256 12.1199 20.1256C12.5001 20.1256 12.8684 20.0744 13.2184 19.9789C11.3124 19.5973 9.87659 17.9128 9.87659 15.8957C9.87659 15.8769 9.87659 15.86 9.87714 15.8425C10.4385 16.1546 11.0804 16.3424 11.7638 16.3634C10.6453 15.6171 9.9101 14.3413 9.9101 12.8961C9.9101 12.1329 10.1164 11.4179 10.4742 10.8023C12.5284 13.3228 15.5983 14.9805 19.0603 15.1547C18.9889 14.8495 18.952 14.5316 18.952 14.2048C18.952 11.9053 20.8176 10.0397 23.118 10.0397C24.3162 10.0397 25.3984 10.5462 26.1586 11.3559C27.1076 11.1687 27.9987 10.822 28.8037 10.3449C28.4922 11.3171 27.832 12.1329 26.9719 12.6488C27.8146 12.548 28.6176 12.3245 29.3639 11.9928C28.8065 12.8283 28.0995 13.5621 27.2862 14.15Z" fill="#2E3192"/>
</g>
<defs>
<clipPath id="clip0_74_1872">
<rect width="36.2963" height="36.2963" fill="white" transform="translate(0.851807)"/>
</clipPath>
</defs>
</svg>
