<svg width="37" height="37" viewBox="0 0 37 37" fill="none" xmlns="http://www.w3.org/2000/svg">
<g clip-path="url(#clip0_74_1874)">
<path d="M16.335 21.0756L21.3687 18.1552L16.335 15.2205V21.0756Z" fill="#2E3192"/>
<path d="M18.8519 0C15.2625 0 11.7538 1.06437 8.76932 3.05851C5.78487 5.05266 3.45878 7.88701 2.08519 11.2032C0.711599 14.5193 0.352205 18.1683 1.05246 21.6887C1.75271 25.2091 3.48115 28.4428 6.01921 30.9808C8.55728 33.5189 11.791 35.2473 15.3114 35.9476C18.8318 36.6478 22.4807 36.2884 25.7969 34.9149C29.113 33.5413 31.9474 31.2152 33.9415 28.2307C35.9357 25.2463 37 21.7375 37 18.1481C37 13.335 35.088 8.71891 31.6846 5.31547C28.2811 1.91203 23.6651 0 18.8519 0ZM28.4035 21.3599C28.4039 21.8346 28.3106 22.3046 28.1292 22.7432C27.9478 23.1818 27.6817 23.5804 27.3462 23.9162C27.0107 24.2519 26.6123 24.5182 26.1738 24.7C25.7353 24.8817 25.2653 24.9752 24.7906 24.9752H12.9131C12.4385 24.9752 11.9685 24.8817 11.53 24.7C11.0915 24.5182 10.6931 24.2519 10.3576 23.9162C10.0221 23.5804 9.75599 23.1818 9.57456 22.7432C9.39314 22.3046 9.29992 21.8346 9.30023 21.3599V14.9364C9.29992 14.4617 9.39314 13.9917 9.57456 13.5531C9.75599 13.1145 10.0221 12.7159 10.3576 12.3801C10.6931 12.0444 11.0915 11.7781 11.53 11.5963C11.9685 11.4146 12.4385 11.3211 12.9131 11.3211H24.7906C25.2653 11.3211 25.7353 11.4146 26.1738 11.5963C26.6123 11.7781 27.0107 12.0444 27.3462 12.3801C27.6817 12.7159 27.9478 13.1145 28.1292 13.5531C28.3106 13.9917 28.4039 14.4617 28.4035 14.9364V21.3599Z" fill="#2E3192"/>
</g>
<defs>
<clipPath id="clip0_74_1874">
<rect width="36.2963" height="36.2963" fill="white" transform="translate(0.703735)"/>
</clipPath>
</defs>
</svg>
